<svg preserveAspectRatio="none" width="100%" height="100%" overflow="visible" style="display: block;" viewBox="0 0 350 349.433" fill="none" xmlns="http://www.w3.org/2000/svg">
<g id="Group 27">
<path id="Vector 49" d="M297.871 197.991C312.312 170.894 284.936 109.084 284.936 109.084C284.936 109.084 284.509 103.117 261.102 79.6028C235.098 58.8246 210.694 48.2648 176.956 48.2448C160.15 44.6551 142.812 62.2203 142.812 62.2203C142.812 62.2203 115.638 59.2327 99.652 65.9632C75.0574 76.3184 97.3647 102.038 74.4522 118.725C52.7193 130.871 42.353 148.155 52.3465 170.204C57.9491 181.93 61.1189 186.369 57.0697 199.191C54.4088 219.336 52.9568 230.826 71.0389 254.814C110.937 284.317 130.549 304.317 181.944 302.958C187.609 309.035 209.293 288.376 230.951 293.865C271.15 278.267 286.226 258.021 297.871 197.991Z" stroke="url(#paint0_linear_0_26)" stroke-width="1.54507"/>
<path id="Vector 50" d="M308.754 198.079C314.75 129.825 285.332 90.1748 285.332 90.1748L273.018 72.4121C273.018 72.4121 214.975 37.3094 178.716 37.2687C160.651 33.4058 142.027 52.2507 142.027 52.2507C142.027 52.2507 112.82 49.0281 95.6434 56.2437C69.2165 67.3451 92.9256 96.3749 68.31 114.274C44.9598 127.3 34.1088 144.437 44.8618 168.11C50.8899 180.701 52.0033 188.019 47.6588 201.78C44.8106 223.402 47.7774 236.366 67.2248 262.125C110.122 293.818 128.986 312.116 184.222 310.686C190.314 317.212 259.029 290.325 259.029 290.325C259.029 290.325 296.273 262.509 308.754 198.079Z" stroke="url(#paint1_linear_0_26)" stroke-width="1.54507"/>
<path id="Vector 51" d="M268.637 193.868C279.492 173.503 256.811 127.47 256.811 127.47C256.811 127.47 243.162 121.401 240.982 104.882C221.428 89.2618 209.281 83.6333 183.915 83.615C171.279 80.9153 152.044 91.8051 152.044 91.8051C152.044 91.8051 131.613 89.5569 119.595 94.6141C101.104 102.395 113.421 127.794 96.1963 140.335C79.8578 149.462 76.5229 156.385 84.0386 172.959C88.252 181.773 89.0288 186.897 85.9857 196.533C83.9871 211.674 86.0589 220.751 99.6562 238.782C129.656 260.962 147.051 271.861 185.692 270.845C189.952 275.412 202.05 261.794 218.333 265.922C248.555 254.202 259.888 238.986 268.637 193.868Z" stroke="url(#paint2_linear_0_26)" stroke-width="1.44622"/>
<path id="Vector 52" d="M293.352 196.957C307.076 171.171 271.596 106.02 271.596 106.02C271.596 106.02 268.641 91.0294 253.781 85.4916C214.161 70.7272 218.716 57.6056 186.738 57.6308C170.812 54.2394 146.556 68.0575 146.556 68.0575C146.556 68.0575 120.803 65.2522 105.642 71.6731C82.3162 81.5518 97.7958 113.662 76.0562 129.559C55.4406 141.137 51.2231 149.903 60.6666 170.855C65.9617 181.998 66.9312 188.479 63.0765 200.676C60.528 219.835 63.1225 231.315 80.2304 254.1C118.01 282.102 139.918 295.858 188.635 294.499C193.997 300.269 209.275 283.017 229.796 288.208C267.92 273.324 282.236 254.053 293.352 196.957Z" stroke="url(#paint3_linear_0_26)" stroke-width="1.44622"/>
<path id="Vector 53" d="M259.049 192.993C268.743 174.778 243.684 128.756 243.684 128.756C243.684 128.756 241.597 118.166 231.1 114.255C203.114 103.826 206.332 94.5568 183.744 94.5752C172.495 92.1798 155.361 101.941 155.361 101.941C155.361 101.941 137.171 99.9603 126.461 104.496C109.985 111.475 120.918 134.157 105.562 145.388C91 153.567 88.0208 159.759 94.6908 174.56C98.4308 182.431 99.1155 187.009 96.3925 195.625C94.5919 209.159 96.4244 217.268 108.508 233.364C135.193 253.144 150.668 262.861 185.08 261.899C188.867 265.975 199.659 253.788 214.154 257.455C241.083 246.94 251.196 233.326 259.049 192.993Z" stroke="url(#paint4_linear_0_26)" stroke-width="1.44622"/>
<path id="Vector 54" d="M275.034 195.399C286.63 173.641 264.635 124.005 264.635 124.005C264.635 124.005 247.817 117.978 245.488 100.33C224.598 83.6421 204.995 75.1601 177.895 75.1405C164.395 72.2563 150.47 86.3592 150.47 86.3592C150.47 86.3592 128.643 83.9574 115.804 89.3603C96.0494 97.6729 110.054 122.54 91.6511 135.938C74.1958 145.689 69.7875 155.354 77.817 173.06C82.3184 182.477 83.1482 187.951 79.8972 198.246C77.762 214.422 79.9753 224.119 94.5021 243.383C126.553 267.078 140.646 280.761 181.928 279.674C186.479 284.554 203.894 267.968 221.291 272.377C253.579 259.857 265.686 243.601 275.034 195.399Z" stroke="url(#paint5_linear_0_26)" stroke-width="1.54507"/>
<path id="Vector 55" d="M246.951 192.077C255.269 176.471 239.493 140.869 239.493 140.869C239.493 140.869 239.247 137.433 225.761 123.888C210.778 111.919 196.718 105.835 177.282 105.822C167.599 103.753 157.612 113.869 157.612 113.869C157.612 113.869 141.956 112.146 132.747 116.022C118.579 121.984 131.432 136.799 118.233 146.409C105.713 153.403 99.7424 163.357 105.501 176.057C108.73 182.811 110.556 185.368 108.224 192.752C106.692 204.355 105.857 210.973 116.275 224.789C139.263 241.785 150.563 253.305 180.172 252.526C183.436 256.026 195.927 244.129 208.404 247.291C231.562 238.31 240.246 226.651 246.951 192.077Z" stroke="url(#paint6_linear_0_26)" stroke-width="1.54507"/>
<path id="Vector 56" d="M283.999 196.711C288.911 141.025 264.95 108.688 264.95 108.688L254.921 94.2008C254.921 94.2008 207.629 65.5839 178.077 65.5638C163.356 62.4189 148.171 77.8001 148.171 77.8001C148.171 77.8001 124.369 75.1816 110.367 81.0746C88.8251 90.1411 108.137 113.816 88.0693 128.428C69.0342 139.063 60.1845 153.048 68.9396 172.358C73.8478 182.627 74.7525 188.597 71.2068 199.825C68.8777 217.467 71.2909 228.042 87.1311 249.05C122.081 274.891 137.448 289.812 182.466 288.625C187.428 293.947 243.441 271.987 243.441 271.987C243.441 271.987 273.804 249.28 283.999 196.711Z" stroke="url(#paint7_linear_0_26)" stroke-width="1.54507"/>
<path id="Vector 57" d="M239.676 190.068C242.529 157.577 228.522 138.702 228.522 138.702L222.659 130.246C222.659 130.246 195.024 113.534 177.761 113.514C169.161 111.674 160.294 120.645 160.294 120.645C160.294 120.645 146.389 119.11 138.211 122.544C125.63 127.828 136.919 141.648 125.2 150.168C114.083 156.368 108.917 164.525 114.038 175.795C116.908 181.788 117.438 185.272 115.37 191.823C114.015 202.115 115.428 208.287 124.687 220.549C145.111 235.637 154.093 244.348 180.39 243.669C183.291 246.776 216.005 233.979 216.005 233.979C216.005 233.979 233.736 220.739 239.676 190.068Z" stroke="url(#paint8_linear_0_26)" stroke-width="1.54507"/>
</g>
<defs>
<linearGradient id="paint0_linear_0_26" x1="219.436" y1="55.2017" x2="130.286" y2="294.424" gradientUnits="userSpaceOnUse">
<stop stop-color="#F1E9DE"/>
<stop offset="1" stop-color="#E2C2FF"/>
</linearGradient>
<linearGradient id="paint1_linear_0_26" x1="222.388" y1="47.5564" x2="127.612" y2="301.877" gradientUnits="userSpaceOnUse">
<stop stop-color="#F1E9DE"/>
<stop offset="1" stop-color="#E2C2FF"/>
</linearGradient>
<linearGradient id="paint2_linear_0_26" x1="209.21" y1="86.3723" x2="142.715" y2="264.803" gradientUnits="userSpaceOnUse">
<stop stop-color="#F1E9DE"/>
<stop offset="1" stop-color="#E2C2FF"/>
</linearGradient>
<linearGradient id="paint3_linear_0_26" x1="217.396" y1="64.4037" x2="134.466" y2="286.937" gradientUnits="userSpaceOnUse">
<stop stop-color="#F1E9DE"/>
<stop offset="1" stop-color="#E2C2FF"/>
</linearGradient>
<linearGradient id="paint4_linear_0_26" x1="205.4" y1="99.359" x2="146.817" y2="256.559" gradientUnits="userSpaceOnUse">
<stop stop-color="#F1E9DE"/>
<stop offset="1" stop-color="#E2C2FF"/>
</linearGradient>
<linearGradient id="paint5_linear_0_26" x1="211.544" y1="80.5553" x2="139.769" y2="273.157" gradientUnits="userSpaceOnUse">
<stop stop-color="#F1E9DE"/>
<stop offset="1" stop-color="#E2C2FF"/>
</linearGradient>
<linearGradient id="paint6_linear_0_26" x1="201.755" y1="109.831" x2="150.411" y2="247.607" gradientUnits="userSpaceOnUse">
<stop stop-color="#F5F4EF"/>
<stop offset="1" stop-color="#FF7A2F"/>
</linearGradient>
<linearGradient id="paint7_linear_0_26" x1="213.666" y1="73.941" x2="136.332" y2="281.459" gradientUnits="userSpaceOnUse">
<stop stop-color="#F1E9DE"/>
<stop offset="1" stop-color="#E2C2FF"/>
</linearGradient>
<linearGradient id="paint8_linear_0_26" x1="198.554" y1="118.412" x2="153.438" y2="239.474" gradientUnits="userSpaceOnUse">
<stop stop-color="#F1E9DE"/>
<stop offset="1" stop-color="#E2C2FF"/>
</linearGradient>
</defs>
</svg>
