<svg preserveAspectRatio="none" width="100%" height="100%" overflow="visible" style="display: block;" viewBox="0 0 337.343 201.415" fill="none" xmlns="http://www.w3.org/2000/svg">
<path id="Rectangle 41" d="M9.45824 17.2375C24.2005 -12.0556 55.3605 13.5628 88.1536 13.3964C119.602 13.2367 136.625 3.27078 168.073 3.4964C200.287 3.72751 217.532 15.0734 249.746 15.0713C281.945 15.0692 316.294 -17.0787 328.934 12.5357C336.79 30.9398 318.964 33.2549 319.187 53.2641C319.4 72.4057 330.302 81.629 331.381 100.741C332.409 118.966 325.554 128.839 325.344 147.091C325.115 167.105 347.785 186.518 331.381 197.987C317.864 207.437 306.506 189.398 290.013 189.485C273.934 189.57 265.803 197.67 249.727 197.987C233.703 198.302 225.292 191.171 209.265 191.124C192.957 191.077 184.381 197.909 168.073 197.987C151.123 198.068 142.185 190.713 125.237 190.991C109.835 191.244 101.822 197.869 86.4197 197.987C70.5014 198.108 62.1547 191.222 46.2361 191.14C29.822 191.056 17.2527 208.641 4.76602 197.987C-9.17116 186.095 11.8693 169.973 12.1251 151.653C12.4056 131.566 4.30428 120.825 4.76602 100.741C5.18393 82.5643 12.4736 73.0622 12.8075 54.8833C13.1804 34.5747 0.327009 35.3814 9.45824 17.2375Z" fill="var(--fill-0, #F5F4EF)"/>
</svg>
