<svg preserveAspectRatio="none" width="100%" height="100%" overflow="visible" style="display: block;" viewBox="0 0 221.695 214.593" fill="none" xmlns="http://www.w3.org/2000/svg">
<path id="Vector 53" d="M91.3531 4.44141C64.5486 1.06563 19.5012 50.0989 19.5012 50.0989C19.5012 50.0989 7.45237 57.1071 7.45256 70.9939C7.45306 108.017 -5.40227 108.292 4.95753 134.523C7.16382 148.627 26.9922 164.305 26.9922 164.305C26.9922 164.305 32.884 186.293 43.3552 196.77C59.4654 212.888 82.3156 190.369 103.134 203.345C119.842 216.72 128.81 217.501 143.933 203.345C151.887 195.593 157.196 192.816 169.023 192.249C186.466 188.482 195.586 182.843 209.821 161.838C221.899 122.277 226.75 100.095 209.821 60.5372C213.093 54.3735 193.189 47.1128 191.058 28.6879C165.822 1.95784 144.476 -3.89613 91.3531 4.44141Z" stroke="url(#paint0_linear_0_6)" stroke-width="1.84334"/>
<defs>
<linearGradient id="paint0_linear_0_6" x1="0.921648" y1="107.296" x2="220.773" y2="107.296" gradientUnits="userSpaceOnUse">
<stop stop-color="#F1E9DE"/>
<stop offset="1" stop-color="#E2C2FF"/>
</linearGradient>
</defs>
</svg>
