<svg preserveAspectRatio="none" width="100%" height="100%" overflow="visible" style="display: block;" viewBox="0 0 313.067 303.039" fill="none" xmlns="http://www.w3.org/2000/svg">
<path id="Vector 52" d="M128.937 5.90469C90.9925 1.1255 27.2231 70.5433 27.2231 70.5433C27.2231 70.5433 10.1666 80.4652 10.1669 100.125C10.1676 152.54 -8.03055 152.929 6.63488 190.066C9.75812 210.033 37.8274 232.228 37.8274 232.228C37.8274 232.228 46.1679 263.358 60.9909 278.19C83.7967 301.009 116.144 269.127 145.615 287.499C169.267 306.434 181.961 307.539 203.369 287.499C214.63 276.524 222.145 272.592 238.887 271.79C263.58 266.457 276.49 258.473 296.641 228.736C313.739 172.729 320.606 141.324 296.641 85.3212C301.274 76.595 273.097 66.3159 270.08 40.2312C234.356 2.38862 204.139 -5.89901 128.937 5.90469Z" stroke="url(#paint0_linear_0_8)" stroke-width="1.84334"/>
<defs>
<linearGradient id="paint0_linear_0_8" x1="0.921648" y1="151.52" x2="312.146" y2="151.52" gradientUnits="userSpaceOnUse">
<stop stop-color="#F1E9DE"/>
<stop offset="1" stop-color="#E2C2FF"/>
</linearGradient>
</defs>
</svg>
