<svg preserveAspectRatio="none" width="100%" height="100%" overflow="visible" style="display: block;" viewBox="0 0 271.332 257.354" fill="none" xmlns="http://www.w3.org/2000/svg">
<path id="Vector 54" d="M112.958 5.20976C80.9329 1.15748 30.0454 48.1959 30.0454 48.1959C30.0454 48.1959 30.341 70.3409 9.73416 80.6867C-1.19819 112.177 -2.64318 138.621 9.73445 170.109C12.3705 187.039 36.0616 197.109 36.0616 197.109C36.0616 197.109 43.1009 223.505 55.6116 236.08C74.8597 255.429 98.9878 228.396 123.862 243.973C143.824 260.029 157.711 260.966 175.779 243.973C185.283 234.668 191.625 231.334 205.756 230.654C226.597 226.132 237.493 219.363 254.5 194.149C268.931 146.66 279.284 124.366 259.058 76.8812C262.968 69.4823 234.629 56.4325 232.083 34.3153C201.931 2.22849 176.429 -4.7986 112.958 5.20976Z" stroke="url(#paint0_linear_0_21)" stroke-width="1.96934"/>
<defs>
<linearGradient id="paint0_linear_0_21" x1="0.984821" y1="128.677" x2="270.347" y2="128.677" gradientUnits="userSpaceOnUse">
<stop stop-color="#F1E9DE"/>
<stop offset="1" stop-color="#E2C2FF"/>
</linearGradient>
</defs>
</svg>
