<svg preserveAspectRatio="none" width="100%" height="100%" overflow="visible" style="display: block;" viewBox="0 0 251.388 240.888" fill="none" xmlns="http://www.w3.org/2000/svg">
<path id="Vector 51" d="M105.731 4.87643C75.7549 1.08343 29.6066 47.3582 29.6066 47.3582C29.6066 47.3582 28.3999 65.8405 9.11149 75.5243C-1.12141 105 -2.4742 121.547 9.11149 151.021C11.5788 166.868 33.7544 184.498 33.7544 184.498C33.7544 184.498 40.3434 209.205 52.0536 220.976C70.0702 239.086 95.6243 213.783 118.907 228.364C137.592 243.392 147.62 244.269 164.533 228.364C173.428 219.654 179.365 216.533 192.591 215.897C212.099 211.664 222.298 205.328 238.217 181.727C251.725 137.276 257.149 112.352 238.217 67.9054C241.877 60.9799 219.617 52.8219 217.234 32.1197C189.012 2.08591 165.141 -4.49158 105.731 4.87643Z" stroke="url(#paint0_linear_0_9)" stroke-width="1.84334"/>
<defs>
<linearGradient id="paint0_linear_0_9" x1="0.92167" y1="120.444" x2="250.466" y2="120.444" gradientUnits="userSpaceOnUse">
<stop stop-color="#F1E9DE"/>
<stop offset="1" stop-color="#E2C2FF"/>
</linearGradient>
</defs>
</svg>
