<svg preserveAspectRatio="none" width="100%" height="100%" overflow="visible" style="display: block;" viewBox="0 0 292.194 277.107" fill="none" xmlns="http://www.w3.org/2000/svg">
<path id="Vector 56" d="M119.561 3.70566C48.9302 22.1063 20.1851 63.9391 20.1851 63.9391L6.98463 81.8607C6.98463 81.8607 -6.51458 149.185 6.98449 183.522C9.85933 201.983 35.6969 212.965 35.6969 212.965C35.6969 212.965 43.3741 241.748 57.0182 255.461C78.0102 276.56 98.2452 243.878 125.373 260.864C147.144 278.372 168.368 282.598 188.073 264.068C198.438 253.921 205.355 250.286 220.766 249.544C243.495 244.613 255.378 237.231 273.927 209.737C289.665 157.952 300.956 133.641 278.897 81.8607C283.161 73.7924 230.56 18.2332 230.56 18.2332C230.56 18.2332 188.782 -7.20807 119.561 3.70566Z" stroke="url(#paint0_linear_0_4)" stroke-width="1.96934"/>
<defs>
<linearGradient id="paint0_linear_0_4" x1="0.984938" y1="138.554" x2="291.209" y2="138.554" gradientUnits="userSpaceOnUse">
<stop stop-color="#F1E9DE"/>
<stop offset="1" stop-color="#E2C2FF"/>
</linearGradient>
</defs>
</svg>
