<svg preserveAspectRatio="none" width="100%" height="100%" overflow="visible" style="display: block;" viewBox="0 0 194.655 184.241" fill="none" xmlns="http://www.w3.org/2000/svg">
<path id="Vector 55" d="M81.2994 4.015C58.3287 1.1086 21.8289 34.8458 21.8289 34.8458C21.8289 34.8458 17.7218 36.6198 7.26038 58.1491C-0.581014 80.7349 -1.61745 99.7008 7.26058 122.285C9.1513 134.428 26.1441 141.651 26.1441 141.651C26.1441 141.651 31.1932 160.582 40.1666 169.602C53.9726 183.479 66.2831 162.135 84.1242 173.308C98.4425 184.823 113.399 187.45 126.358 175.263C133.175 168.589 135.479 165.36 145.615 164.872C160.563 161.629 169.073 159.735 181.272 141.651C191.622 107.59 200.599 89.477 186.091 55.4197C188.896 50.113 168.569 40.7533 166.743 24.8902C145.117 1.87676 126.824 -3.16326 81.2994 4.015Z" stroke="url(#paint0_linear_0_5)" stroke-width="1.96934"/>
<defs>
<linearGradient id="paint0_linear_0_5" x1="0.984686" y1="92.1203" x2="193.671" y2="92.1203" gradientUnits="userSpaceOnUse">
<stop stop-color="#F5F4EF"/>
<stop offset="1" stop-color="#FF7A2F"/>
</linearGradient>
</defs>
</svg>
