<svg preserveAspectRatio="none" width="100%" height="100%" overflow="visible" style="display: block;" viewBox="0 0 357.649 339.62" fill="none" xmlns="http://www.w3.org/2000/svg">
<path id="Vector 49" d="M146.303 4.32388C59.7435 26.9053 24.5154 78.2427 24.5154 78.2427L8.33776 100.236C8.33776 100.236 -8.20597 182.857 8.33758 224.995C11.8608 247.651 43.5256 261.128 43.5256 261.128C43.5256 261.128 52.9342 296.45 69.6555 313.28C95.382 339.172 120.181 299.064 153.426 319.91C180.107 341.395 206.118 346.581 230.268 323.842C242.97 311.39 251.447 306.928 270.334 306.018C298.189 299.966 312.752 290.908 335.484 257.166C354.772 193.615 368.609 163.781 341.575 100.236C346.801 90.3347 282.337 22.1521 282.337 22.1521C282.337 22.1521 231.136 -9.0695 146.303 4.32388Z" stroke="url(#paint0_linear_0_10)" stroke-width="1.96934"/>
<defs>
<linearGradient id="paint0_linear_0_10" x1="0.984937" y1="169.81" x2="356.665" y2="169.81" gradientUnits="userSpaceOnUse">
<stop stop-color="#F1E9DE"/>
<stop offset="1" stop-color="#E2C2FF"/>
</linearGradient>
</defs>
</svg>
