<svg preserveAspectRatio="none" width="100%" height="100%" overflow="visible" style="display: block;" viewBox="0 0 171.281 162.727" fill="none" xmlns="http://www.w3.org/2000/svg">
<path id="Vector 57" d="M70.1596 2.57449C28.9552 13.3256 12.1859 37.7677 12.1859 37.7677L4.48504 48.2389C4.48504 48.2389 -3.39013 87.5751 4.48495 107.637C6.16208 118.424 21.2352 124.84 21.2352 124.84C21.2352 124.84 25.7139 141.658 33.6736 149.67C45.9199 161.998 57.7246 142.902 73.5503 152.827C86.251 163.056 98.6326 165.525 110.128 154.699C116.175 148.77 120.21 146.646 129.201 146.213C142.461 143.332 149.393 139.019 160.214 122.954C169.395 92.6972 175.982 78.493 163.113 48.2389C165.601 43.5248 134.915 11.0626 134.915 11.0626C134.915 11.0626 110.542 -3.80218 70.1596 2.57449Z" stroke="url(#paint0_linear_0_16)" stroke-width="1.96934"/>
<defs>
<linearGradient id="paint0_linear_0_16" x1="0.984937" y1="81.3634" x2="170.296" y2="81.3634" gradientUnits="userSpaceOnUse">
<stop stop-color="#F1E9DE"/>
<stop offset="1" stop-color="#E2C2FF"/>
</linearGradient>
</defs>
</svg>
