<svg preserveAspectRatio="none" width="100%" height="100%" overflow="visible" style="display: block;" viewBox="0 0 336.534 318.342" fill="none" xmlns="http://www.w3.org/2000/svg">
<path id="Vector 50" d="M140.436 6.24452C100.552 1.19982 37.1768 59.7582 37.1768 59.7582C37.1768 59.7582 30.0455 62.8374 11.8813 100.206C-1.73387 139.409 -3.53345 172.328 11.8816 211.528C15.1645 232.605 44.6694 245.141 44.6694 245.141C44.6694 245.141 53.4362 278.001 69.0169 293.657C92.9885 317.744 114.363 280.697 145.341 300.089C170.202 320.077 196.171 324.636 218.673 303.483C230.509 291.898 234.51 286.294 252.108 285.448C278.064 279.818 292.839 276.53 314.021 245.141C331.992 186.022 347.578 154.583 322.388 95.4687C327.258 86.2578 291.965 70.012 288.794 42.4781C251.243 2.53312 219.482 -6.21494 140.436 6.24452Z" stroke="url(#paint0_linear_0_7)" stroke-width="1.96934"/>
<defs>
<linearGradient id="paint0_linear_0_7" x1="0.984686" y1="159.171" x2="335.549" y2="159.171" gradientUnits="userSpaceOnUse">
<stop stop-color="#F1E9DE"/>
<stop offset="1" stop-color="#E2C2FF"/>
</linearGradient>
</defs>
</svg>
