<svg preserveAspectRatio="none" width="100%" height="100%" overflow="visible" style="display: block;" viewBox="0 0 24.2797 25.7079" fill="none" xmlns="http://www.w3.org/2000/svg">
<path id="Vector 40" d="M24.095 6.02382C24.5546 5.21866 24.0835 4.45 23.482 3.73986C22.686 2.79987 21.5241 3.41887 20.4174 2.85483C18.9928 2.12877 18.8973 0.602813 17.3527 0.171176C15.8662 -0.244248 14.9875 0.748787 13.4416 0.770715C11.7379 0.794882 10.7058 -0.443005 9.12186 0.171176C7.75746 0.700228 7.68315 1.93844 6.55337 2.85483C5.16448 3.98138 3.59463 3.70538 2.58389 5.16733C1.62956 6.54769 2.38453 7.8004 1.79583 9.36411C1.29349 10.6984 0.161257 11.1469 0.0153976 12.5616C-0.164514 14.3067 1.28121 15.0212 1.79583 16.7013C2.24621 18.1717 1.68679 19.2961 2.58389 20.5555C3.52713 21.8797 4.93022 21.6484 6.23231 22.6396C7.49806 23.6032 7.61819 24.9486 9.12186 25.4946C10.8159 26.1097 11.9083 24.6711 13.7043 24.8665C14.9056 24.9972 15.4798 25.8229 16.6814 25.6944C18.3381 25.5173 18.6042 23.9343 20.0671 23.1535C21.4127 22.4354 23.0404 23.1434 23.7447 21.8117C24.2265 20.9006 24.4943 19.9024 23.7447 19.1851C23.0114 18.4834 22.0376 18.7406 21.1179 19.1851C20.4314 19.5169 20.4367 20.2321 19.7461 20.5555C18.6583 21.0648 17.883 20.0841 16.6814 20.1844C15.4706 20.2854 14.8961 21.301 13.7043 21.0694C12.3364 20.8036 12.2395 19.4765 11.1358 18.6427C9.93834 17.738 8.48884 18.0232 7.80843 16.7013C7.0542 15.2361 8.62005 14.2002 8.53811 12.5616C8.4742 11.2837 7.42068 10.586 7.80843 9.36411C8.25383 7.96045 9.7476 8.05665 10.8439 7.0516C11.7681 6.20434 11.8585 5.17459 13.033 4.71054C14.3648 4.1843 15.2452 5.14416 16.6814 5.16733C17.8815 5.1867 18.612 4.55426 19.7461 4.93894C20.7997 5.29634 20.8001 6.62508 21.9059 6.76611C22.8031 6.88052 23.6539 6.79655 24.095 6.02382Z" fill="var(--fill-0, #EB7848)"/>
</svg>
