<svg preserveAspectRatio="none" width="100%" height="100%" overflow="visible" style="display: block;" viewBox="0 0 23.3346 24.7072" fill="none" xmlns="http://www.w3.org/2000/svg">
<path id="Vector 40" d="M23.157 5.78933C23.5987 5.01551 23.146 4.27678 22.568 3.59428C21.8029 2.69088 20.6862 3.28578 19.6226 2.7437C18.2535 2.0459 18.1616 0.579347 16.6772 0.164513C15.2485 -0.23474 14.404 0.719639 12.9183 0.740713C11.281 0.763939 10.2891 -0.42576 8.76677 0.164513C7.45548 0.67297 7.38407 1.86298 6.29827 2.7437C4.96344 3.8264 3.4547 3.56114 2.4833 4.96618C1.56612 6.29281 2.2917 7.49676 1.72592 8.99959C1.24314 10.282 0.15498 10.713 0.0147982 12.0727C-0.15811 13.7498 1.23134 14.4365 1.72592 16.0512C2.15877 17.4643 1.62113 18.545 2.4833 19.7553C3.38983 21.028 4.7383 20.8057 5.9897 21.7583C7.20619 22.6844 7.32163 23.9774 8.76677 24.5021C10.3949 25.0933 11.4448 23.7107 13.1708 23.8985C14.3253 24.0241 14.8772 24.8176 16.032 24.6942C17.6242 24.524 17.88 23.0026 19.286 22.2522C20.5792 21.562 22.1435 22.2425 22.8204 20.9626C23.2835 20.087 23.5408 19.1277 22.8204 18.4383C22.1156 17.7639 21.1797 18.0111 20.2958 18.4383C19.636 18.7572 19.6412 19.4446 18.9774 19.7553C17.932 20.2448 17.1869 19.3022 16.032 19.3986C14.8684 19.4958 14.3163 20.4718 13.1708 20.2492C11.8562 19.9938 11.763 18.7183 10.7023 17.917C9.55147 17.0476 8.15839 17.3216 7.50447 16.0512C6.7796 14.643 8.2845 13.6474 8.20575 12.0727C8.14432 10.8445 7.13182 10.174 7.50447 8.99959C7.93253 7.65057 9.36816 7.74303 10.4218 6.7771C11.31 5.96282 11.3969 4.97315 12.5256 4.52717C13.8057 4.02142 14.6517 4.94391 16.032 4.96618C17.1854 4.9848 17.8875 4.37697 18.9774 4.74668C19.99 5.09017 19.9904 6.36718 21.0532 6.50272C21.9155 6.61269 22.7331 6.53198 23.157 5.78933Z" fill="var(--fill-0, #0B0B0B)"/>
</svg>
