<svg preserveAspectRatio="none" width="100%" height="100%" overflow="visible" style="display: block;" viewBox="0 0 46.3462 48.8956" fill="none" xmlns="http://www.w3.org/2000/svg">
<g id="Vector 39" filter="url(#filter0_d_0_25)">
<path d="M44.5129 10.7525C45.3333 9.31525 44.4923 7.94321 43.4188 6.67561C41.9978 4.99774 39.9238 6.10264 37.9484 5.09584C35.4055 3.79983 35.235 1.07602 32.478 0.305547C29.8245 -0.435981 28.256 1.33658 25.4967 1.37572C22.4556 1.41886 20.6133 -0.790759 17.786 0.305547C15.3506 1.2499 15.2179 3.46009 13.2013 5.09584C10.7221 7.10673 7.91996 6.61407 6.11579 9.22364C4.41233 11.6876 5.75994 13.9236 4.70912 16.7148C3.81245 19.0966 1.79143 19.8971 1.53107 22.4224C1.20993 25.5373 3.79053 26.8128 4.70912 29.8117C5.51305 32.4363 4.51448 34.4433 6.11579 36.6914C7.79947 39.055 10.304 38.6421 12.6282 40.4115C14.8876 42.1315 15.102 44.533 17.786 45.5075C20.8099 46.6055 22.7598 44.0377 25.9656 44.3864C28.1099 44.6197 29.1349 46.0935 31.2797 45.8643C34.2368 45.5481 34.7119 42.7224 37.3232 41.3288C39.7251 40.0469 42.6305 41.3108 43.8877 38.9336C44.7477 37.3074 45.2257 35.5256 43.8877 34.2453C42.5787 32.9927 40.8404 33.4518 39.1988 34.2453C37.9734 34.8375 37.983 36.1141 36.7501 36.6914C34.8084 37.6004 33.4245 35.8498 31.2797 36.0289C29.1185 36.2093 28.093 38.022 25.9656 37.6087C23.524 37.1342 23.3509 34.7654 21.3809 33.277C19.2434 31.6622 16.6561 32.1712 15.4415 29.8117C14.0953 27.1962 16.8903 25.3472 16.744 22.4224C16.6299 20.1413 14.7494 18.896 15.4415 16.7148C16.2366 14.2093 18.903 14.381 20.8599 12.587C22.5095 11.0747 22.6709 9.23658 24.7673 8.40827C27.1447 7.46894 28.716 9.18227 31.2797 9.22364C33.4219 9.25821 34.7259 8.1293 36.7501 8.81596C38.6308 9.45391 38.6316 11.8257 40.6054 12.0774C42.2069 12.2817 43.7256 12.1318 44.5129 10.7525Z" fill="#F5F4EF"/>
</g>
<defs>
<filter id="filter0_d_0_25" x="-4.48143e-10" y="0" width="46.3462" height="48.8956" filterUnits="userSpaceOnUse" color-interpolation-filters="sRGB">
<feFlood flood-opacity="0" result="BackgroundImageFix"/>
<feColorMatrix in="SourceAlpha" type="matrix" values="0 0 0 0 0 0 0 0 0 0 0 0 0 0 0 0 0 0 127 0" result="hardAlpha"/>
<feOffset dy="1.50358"/>
<feGaussianBlur stdDeviation="0.751792"/>
<feComposite in2="hardAlpha" operator="out"/>
<feColorMatrix type="matrix" values="0 0 0 0 0.945098 0 0 0 0 0.913725 0 0 0 0 0.870588 0 0 0 0.25 0"/>
<feBlend mode="normal" in2="BackgroundImageFix" result="effect1_dropShadow_0_25"/>
<feBlend mode="normal" in="SourceGraphic" in2="effect1_dropShadow_0_25" result="shape"/>
</filter>
</defs>
</svg>
