<svg width="680" height="675" viewBox="0 0 680 675" fill="none" xmlns="http://www.w3.org/2000/svg">
<rect width="679.607" height="674.297" fill="#0B0B0B"/>
<rect width="679.607" height="674.297" fill="#0B0B0B"/>
<rect x="616.22" y="600.975" width="63.1007" height="73.064" fill="#0B0B0B"/>
<path d="M491.665 241.065C498.12 229.757 491.503 218.961 483.056 208.987C471.875 195.785 455.557 204.479 440.013 196.557C420.005 186.359 418.663 164.927 396.97 158.865C376.092 153.03 363.75 166.978 342.039 167.286C318.111 167.625 303.615 150.239 281.368 158.865C262.206 166.296 261.162 183.686 245.294 196.557C225.787 212.379 203.739 208.503 189.543 229.036C176.14 248.423 186.743 266.017 178.475 287.979C171.42 306.72 155.517 313.019 153.469 332.888C150.942 357.397 171.247 367.433 178.475 391.03C184.8 411.681 176.943 427.473 189.543 445.162C202.791 463.76 222.497 460.511 240.785 474.433C258.562 487.966 260.249 506.862 281.368 514.53C305.162 523.17 320.504 502.965 345.728 505.709C362.6 507.544 370.666 519.141 387.542 517.337C410.81 514.85 414.547 492.616 435.094 481.65C453.993 471.564 476.854 481.509 486.746 462.805C493.513 450.009 497.274 435.989 486.746 425.915C476.446 416.06 462.769 419.672 449.852 425.915C440.21 430.575 440.285 440.62 430.585 445.162C415.307 452.315 404.418 438.54 387.542 439.949C370.537 441.368 362.468 455.632 345.728 452.379C326.517 448.646 325.155 430.007 309.654 418.296C292.836 405.591 272.478 409.595 262.921 391.03C252.328 370.451 274.321 355.902 273.17 332.888C272.272 314.94 257.476 305.141 262.921 287.979C269.177 268.265 290.157 269.616 305.555 255.5C318.535 243.6 319.805 229.138 336.3 222.62C355.006 215.229 367.37 228.71 387.542 229.036C404.397 229.308 414.657 220.425 430.585 225.828C445.383 230.848 445.389 249.51 460.92 251.49C473.521 253.097 485.47 251.918 491.665 241.065Z" fill="#F5F4EF" stroke="#F5F4EF" stroke-width="1.18143"/>
</svg>
