<svg width="3170" height="2034" viewBox="0 0 3170 2034" fill="none" xmlns="http://www.w3.org/2000/svg">
<path d="M24.9813 318.996C147.003 38.3421 450.747 260.725 756.206 242.004C1049.14 224.05 1202.53 122.282 1495.67 107.918C1795.93 93.2055 1962.56 189.89 2262.71 173.004C2562.72 156.126 2865.93 -161.393 2999.2 107.918C3082.03 275.283 2917.16 306.187 2929.71 492.504C2941.71 670.743 3048.13 750.971 3068.18 928.485C3087.3 1097.75 3028.6 1193.33 3036.21 1363.5C3044.55 1550.1 3265.93 1719.11 3119.1 1834.56C2998.1 1929.68 2882.83 1767.56 2729.21 1777C2579.44 1786.21 2507.92 1865.94 2358.3 1877.31C2209.16 1888.64 2127.06 1826.6 1977.71 1834.56C1825.73 1842.65 1749.4 1910.79 1597.5 1920.06C1439.61 1929.69 1352.47 1865.84 1194.71 1877.31C1051.34 1887.73 980.148 1953.65 836.698 1962.81C688.444 1972.28 607.069 1912.49 458.706 1920.06C305.726 1927.87 197.819 2098.3 75.8978 2005.56C-60.1868 1902.06 127.415 1740.83 120.206 1570C112.302 1382.7 31.1957 1286.86 24.9827 1099.49C19.3594 929.91 82.3055 837.559 75.8978 668.004C68.7393 478.585 -50.5982 492.831 24.9813 318.996Z" fill="#F5F4EF"/>
</svg>
