<svg preserveAspectRatio="none" width="100%" height="100%" overflow="visible" style="display: block;" viewBox="0 0 799.815 799.542" fill="none" xmlns="http://www.w3.org/2000/svg">
<path id="Vector 40" d="M333.776 15.6185C239.001 2.94618 88.4069 150.046 88.4069 150.046C88.4069 150.046 71.4612 157.78 28.2986 251.651C-4.05417 350.129 -8.3304 432.823 28.2995 531.293C36.1004 584.237 106.211 615.73 106.211 615.73C106.211 615.73 127.043 698.274 164.066 737.601C221.029 798.108 271.821 705.046 345.431 753.759C404.507 803.968 466.214 815.422 519.686 762.284C547.811 733.184 557.318 719.107 599.135 716.98C660.812 702.838 695.921 694.58 746.253 615.73C788.958 467.222 825.993 388.246 766.137 239.751C777.708 216.613 693.844 175.803 686.31 106.638C597.08 6.29546 521.608 -15.6798 333.776 15.6185Z" stroke="url(#paint0_linear_0_10)" stroke-width="4.81146"/>
<defs>
<linearGradient id="paint0_linear_0_10" x1="2.40576" y1="399.771" x2="797.41" y2="399.771" gradientUnits="userSpaceOnUse">
<stop stop-color="#F1E9DE"/>
<stop offset="1" stop-color="#E2C2FF"/>
</linearGradient>
</defs>
</svg>
