<svg width="1291" height="1289" viewBox="0 0 1291 1289" fill="none" xmlns="http://www.w3.org/2000/svg">
<path d="M990.787 715.025C1030.82 639.913 947.168 470.137 947.168 470.137C947.168 470.137 896.828 447.753 888.787 386.825C816.67 329.217 771.869 308.458 678.315 308.39C631.711 298.433 560.767 338.597 560.767 338.597C560.767 338.597 485.414 330.305 441.089 348.957C372.893 377.654 418.32 471.332 354.791 517.583C294.531 551.246 282.231 576.782 309.951 637.906C325.49 670.415 328.355 689.313 317.132 724.855C309.761 780.697 317.402 814.175 367.551 880.677C478.198 962.479 542.352 1002.68 684.868 998.93C700.578 1015.78 745.198 965.549 805.255 980.773C916.721 937.548 958.517 881.43 990.787 715.025Z" stroke="url(#paint0_linear_144_153)" stroke-width="5.33392"/>
<path d="M955.421 711.798C991.175 644.617 898.749 474.878 898.749 474.878C898.749 474.878 891.053 435.822 852.339 421.396C749.122 382.932 760.991 348.745 677.681 348.813C636.193 339.979 572.999 375.982 572.999 375.982C572.999 375.982 505.908 368.675 466.411 385.404C405.642 411.144 445.967 494.8 389.33 536.221C335.622 566.387 324.634 589.224 349.235 643.812C363.029 672.843 365.554 689.728 355.511 721.506C348.87 771.421 355.628 801.329 400.196 860.692C498.616 933.645 555.691 969.483 682.608 965.937C696.575 980.971 736.378 936.023 789.838 949.545C889.159 910.764 926.457 860.555 955.421 711.798Z" stroke="url(#paint2_linear_144_153)" stroke-width="5.33392"/>
<path d="M1014.38 720.672C1057.15 640.426 976.026 457.358 976.026 457.358C976.026 457.358 913.998 435.13 905.408 370.038C828.361 308.492 756.061 277.208 656.113 277.136C606.324 266.498 554.965 318.513 554.965 318.513C554.965 318.513 474.462 309.654 427.107 329.581C354.25 360.24 405.9 451.955 338.028 501.367C273.649 537.331 257.391 572.979 287.005 638.282C303.607 673.013 306.668 693.202 294.677 731.173C286.802 790.833 294.966 826.599 348.543 897.647C466.753 985.04 518.731 1035.5 670.988 1031.5C687.772 1049.5 752.004 988.321 816.165 1004.58C935.25 958.405 979.904 898.451 1014.38 720.672Z" stroke="url(#paint3_linear_144_153)" stroke-width="5.69852"/>
<path d="M1098.61 730.229C1151.87 630.289 1050.9 402.32 1050.9 402.32C1050.9 402.32 1049.33 380.315 962.999 293.589C867.089 216.955 777.083 178.009 652.651 177.935C590.667 164.696 526.719 229.479 526.719 229.479C526.719 229.479 426.497 218.46 367.538 243.284C276.828 281.476 359.102 376.334 274.596 437.881C194.441 482.678 156.208 546.424 193.066 627.743C213.73 670.992 225.42 687.365 210.486 734.654C200.673 808.952 195.317 851.332 262.008 939.802C409.161 1048.62 481.492 1122.38 671.048 1117.37C691.941 1139.78 771.917 1063.58 851.793 1083.83C1000.06 1026.3 1055.66 951.631 1098.61 730.229Z" stroke="url(#paint4_linear_144_153)" stroke-width="5.69852"/>
<path d="M910.798 708.416C941.476 650.858 883.293 519.552 883.293 519.552C883.293 519.552 882.384 506.878 832.645 456.922C777.385 412.778 725.53 390.34 653.844 390.29C618.133 382.661 581.297 419.969 581.297 419.969C581.297 419.969 523.558 413.616 489.593 427.91C437.337 449.901 484.742 504.54 436.061 539.983C389.886 565.779 367.864 602.491 389.104 649.33C401.011 674.241 407.747 683.672 399.146 710.907C393.497 753.699 390.415 778.107 428.841 829.066C513.624 891.748 555.3 934.238 664.503 931.363C676.541 944.272 722.611 900.393 768.629 912.058C854.041 878.934 886.069 835.931 910.798 708.416Z" stroke="url(#paint5_linear_144_153)" stroke-width="5.69852"/>
<path d="M1138.74 730.552C1160.86 478.819 1052.36 332.581 1052.36 332.581L1006.95 267.068C1006.95 267.068 792.871 137.603 659.138 137.453C592.513 123.206 523.823 192.709 523.823 192.709C523.823 192.709 416.103 180.824 352.752 207.436C255.284 248.38 342.728 355.448 251.941 421.465C165.821 469.505 125.8 532.711 165.46 620.022C187.692 666.459 191.799 693.449 175.775 744.201C165.271 823.948 176.213 871.764 247.939 966.768C406.153 1083.66 475.727 1151.14 679.448 1145.87C701.916 1169.94 955.352 1070.77 955.352 1070.77C955.352 1070.77 1092.71 968.184 1138.74 730.552Z" stroke="url(#paint7_linear_144_153)" stroke-width="5.69852"/>
<path d="M883.975 701.015C894.497 581.183 842.837 511.566 842.837 511.566L821.213 480.379C821.213 480.379 719.29 418.743 655.62 418.668C623.9 411.884 591.199 444.968 591.199 444.968C591.199 444.968 539.913 439.307 509.753 451.974C463.35 471.462 504.985 522.432 461.763 553.855C420.763 576.722 401.711 606.809 420.595 648.373C431.181 670.478 433.137 683.327 425.51 707.486C420.511 745.448 425.722 768.21 459.873 813.437C535.201 869.084 568.327 901.211 665.318 898.707C676.015 910.165 796.672 862.966 796.672 862.966C796.672 862.966 862.066 814.134 883.975 701.015Z" stroke="url(#paint8_linear_144_153)" stroke-width="5.69852"/>
<defs>
<linearGradient id="paint0_linear_144_153" x1="771.607" y1="318.559" x2="526.361" y2="976.648" gradientUnits="userSpaceOnUse">
<stop stop-color="#F1E9DE"/>
<stop offset="1" stop-color="#E2C2FF"/>
</linearGradient>
<linearGradient id="paint2_linear_144_153" x1="757.551" y1="366.457" x2="541.487" y2="946.241" gradientUnits="userSpaceOnUse">
<stop stop-color="#F1E9DE"/>
<stop offset="1" stop-color="#E2C2FF"/>
</linearGradient>
<linearGradient id="paint3_linear_144_153" x1="780.218" y1="297.107" x2="515.495" y2="1007.46" gradientUnits="userSpaceOnUse">
<stop stop-color="#F1E9DE"/>
<stop offset="1" stop-color="#E2C2FF"/>
</linearGradient>
<linearGradient id="paint4_linear_144_153" x1="809.324" y1="203.593" x2="480.523" y2="1085.89" gradientUnits="userSpaceOnUse">
<stop stop-color="#F1E9DE"/>
<stop offset="1" stop-color="#E2C2FF"/>
</linearGradient>
<linearGradient id="paint5_linear_144_153" x1="744.106" y1="405.078" x2="554.739" y2="913.222" gradientUnits="userSpaceOnUse">
<stop stop-color="#F5F4EF"/>
<stop offset="1" stop-color="#FF7A2F"/>
</linearGradient>
<linearGradient id="paint7_linear_144_153" x1="820.211" y1="175.396" x2="470.658" y2="1113.38" gradientUnits="userSpaceOnUse">
<stop stop-color="#F1E9DE"/>
<stop offset="1" stop-color="#E2C2FF"/>
</linearGradient>
<linearGradient id="paint8_linear_144_153" x1="732.307" y1="436.734" x2="565.913" y2="883.235" gradientUnits="userSpaceOnUse">
<stop stop-color="#F1E9DE"/>
<stop offset="1" stop-color="#E2C2FF"/>
</linearGradient>
</defs>
</svg>
