<svg preserveAspectRatio="none" width="100%" height="100%" overflow="visible" style="display: block;" viewBox="0 0 849.991 852.993" fill="none" xmlns="http://www.w3.org/2000/svg">
<path id="Vector 41" d="M347.717 10.7939C142.031 67.5186 58.3202 196.479 58.3202 196.479L19.8784 251.726C19.8784 251.726 -19.4334 459.271 19.878 565.122C28.25 622.035 103.493 655.888 103.493 655.888C103.493 655.888 125.85 744.619 165.584 786.894C226.716 851.937 285.644 751.185 364.643 803.549C428.044 857.521 489.851 870.549 547.237 813.428C577.421 782.146 597.564 770.94 642.443 768.653C708.635 753.451 743.239 730.695 797.256 645.936C843.088 486.296 875.968 411.352 811.73 251.726C824.148 226.854 670.966 55.5786 670.966 55.5786C670.966 55.5786 549.3 -22.8505 347.717 10.7939Z" stroke="url(#paint0_linear_0_12)" stroke-width="4.81146"/>
<defs>
<linearGradient id="paint0_linear_0_12" x1="2.40634" y1="426.497" x2="847.585" y2="426.497" gradientUnits="userSpaceOnUse">
<stop stop-color="#F1E9DE"/>
<stop offset="1" stop-color="#E2C2FF"/>
</linearGradient>
</defs>
</svg>
