<svg preserveAspectRatio="none" width="100%" height="100%" overflow="visible" style="display: block;" viewBox="0 0 462.679 462.679" fill="none" xmlns="http://www.w3.org/2000/svg">
<path id="Vector 46" d="M193.252 10.018C138.669 2.71705 51.9365 87.4653 51.9365 87.4653C51.9365 87.4653 42.177 91.9217 17.3183 146.003C-1.31472 202.739 -3.77753 250.382 17.3188 307.113C21.8116 337.616 62.1904 355.76 62.1904 355.76C62.1904 355.76 74.1883 403.316 95.5113 425.974C128.318 460.834 157.57 407.218 199.965 435.283C233.989 464.21 269.528 470.809 300.324 440.194C316.522 423.429 321.997 415.319 346.081 414.093C381.603 405.945 401.823 401.188 430.811 355.76C455.406 270.2 476.736 224.699 442.263 139.147C448.927 125.817 400.627 102.305 396.288 62.4568C344.897 4.64666 301.431 -8.01392 193.252 10.018Z" stroke="url(#paint0_linear_0_6)" stroke-width="4.81146"/>
<defs>
<linearGradient id="paint0_linear_0_6" x1="2.40576" y1="231.34" x2="460.274" y2="231.34" gradientUnits="userSpaceOnUse">
<stop stop-color="#F5F4EF"/>
<stop offset="1" stop-color="#FF7A2F"/>
</linearGradient>
</defs>
</svg>
