<svg preserveAspectRatio="none" width="100%" height="100%" overflow="visible" style="display: block;" viewBox="0 0 644.88 646.339" fill="none" xmlns="http://www.w3.org/2000/svg">
<path id="Vector 45" d="M268.482 13.0192C192.382 2.83984 71.4609 121.001 71.4609 121.001C71.4609 121.001 72.1633 176.629 23.1966 202.618C-2.78128 281.722 -6.2149 348.149 23.1973 427.247C29.4611 469.776 85.7567 495.073 85.7567 495.073C85.7567 495.073 102.484 561.378 132.212 592.969C177.95 641.573 235.285 573.667 294.391 612.796C341.826 653.128 374.824 655.481 417.759 612.796C440.342 589.421 455.413 581.047 488.99 579.338C538.514 567.978 564.405 550.974 604.819 487.636C639.11 368.343 663.71 312.341 615.648 193.059C624.939 174.473 557.6 141.691 551.55 86.1325C479.903 5.53022 419.302 -12.1219 268.482 13.0192Z" stroke="url(#paint0_linear_0_7)" stroke-width="4.81146"/>
<defs>
<linearGradient id="paint0_linear_0_7" x1="2.40608" y1="323.17" x2="642.475" y2="323.17" gradientUnits="userSpaceOnUse">
<stop stop-color="#F1E9DE"/>
<stop offset="1" stop-color="#E2C2FF"/>
</linearGradient>
</defs>
</svg>
