<svg preserveAspectRatio="none" width="100%" height="100%" overflow="visible" style="display: block;" viewBox="0 0 694.454 695.961" fill="none" xmlns="http://www.w3.org/2000/svg">
<path id="Vector 47" d="M284.17 9.2409C116.336 55.4636 48.0305 160.548 48.0305 160.548L16.663 205.567C16.663 205.567 -15.4143 374.687 16.6627 460.94C23.494 507.317 84.8902 534.903 84.8902 534.903C84.8902 534.903 103.133 607.206 135.555 641.654C185.437 694.655 233.52 612.556 297.981 655.225C349.714 699.205 400.147 709.821 446.972 663.275C471.602 637.785 488.038 628.653 524.658 626.79C578.668 614.402 606.905 595.86 650.981 526.793C688.378 396.708 715.208 335.64 662.791 205.567C672.924 185.3 547.932 45.7342 547.932 45.7342C547.932 45.7342 448.656 -18.1745 284.17 9.2409Z" stroke="url(#paint0_linear_0_5)" stroke-width="4.81146"/>
<defs>
<linearGradient id="paint0_linear_0_5" x1="2.40634" y1="347.98" x2="692.048" y2="347.98" gradientUnits="userSpaceOnUse">
<stop stop-color="#F1E9DE"/>
<stop offset="1" stop-color="#E2C2FF"/>
</linearGradient>
</defs>
</svg>
