<svg preserveAspectRatio="none" width="100%" height="100%" overflow="visible" style="display: block;" viewBox="0 0 744.046 761.111" fill="none" xmlns="http://www.w3.org/2000/svg">
<path id="Vector 43" d="M306.447 14.7692C216.282 2.76382 64.7503 177.142 64.7503 177.142C64.7503 177.142 24.2199 202.066 24.2206 251.452C24.2223 383.12 -19.0208 384.096 15.8278 477.383C23.2493 527.541 89.9486 583.296 89.9486 583.296C89.9486 583.296 109.768 661.495 144.991 698.753C199.183 756.075 276.047 675.988 346.078 722.137C402.281 769.703 432.445 772.478 483.316 722.137C510.073 694.568 527.93 684.692 567.714 682.676C626.391 669.279 657.067 649.224 704.952 574.525C745.58 433.833 761.897 354.944 704.952 214.264C715.96 192.344 649.005 166.523 641.837 100.998C556.946 5.93681 485.145 -14.8818 306.447 14.7692Z" stroke="url(#paint0_linear_0_8)" stroke-width="4.50362"/>
<defs>
<linearGradient id="paint0_linear_0_8" x1="2.25176" y1="380.556" x2="741.794" y2="380.556" gradientUnits="userSpaceOnUse">
<stop stop-color="#F1E9DE"/>
<stop offset="1" stop-color="#E2C2FF"/>
</linearGradient>
</defs>
</svg>
