<svg preserveAspectRatio="none" width="100%" height="100%" overflow="visible" style="display: block;" viewBox="0 0 597.48 604.986" fill="none" xmlns="http://www.w3.org/2000/svg">
<path id="Vector 42" d="M251.304 12.1862C180.073 2.65814 70.414 118.901 70.414 118.901C70.414 118.901 67.5465 165.329 21.7128 189.654C-2.60302 263.698 -5.81759 305.264 21.7128 379.302C27.5758 419.11 80.2702 463.398 80.2702 463.398C80.2702 463.398 95.9272 525.461 123.753 555.03C166.565 600.524 227.288 536.963 282.612 573.589C327.012 611.34 350.842 613.542 391.03 573.589C412.169 551.709 426.276 543.871 457.705 542.271C504.06 531.638 528.294 515.722 566.123 456.437C598.219 344.776 611.11 282.166 566.123 170.516C574.819 153.119 521.925 132.626 516.262 80.6217C449.198 5.17639 392.475 -11.3463 251.304 12.1862Z" stroke="url(#paint0_linear_0_9)" stroke-width="4.50362"/>
<defs>
<linearGradient id="paint0_linear_0_9" x1="2.25181" y1="302.493" x2="595.228" y2="302.493" gradientUnits="userSpaceOnUse">
<stop stop-color="#F1E9DE"/>
<stop offset="1" stop-color="#E2C2FF"/>
</linearGradient>
</defs>
</svg>
