<svg preserveAspectRatio="none" width="100%" height="100%" overflow="visible" style="display: block;" viewBox="0 0 407.135 408.636" fill="none" xmlns="http://www.w3.org/2000/svg">
<path id="Vector 48" d="M166.782 6.39939C68.8704 33.4064 29.0225 94.8051 29.0225 94.8051L10.7234 121.109C10.7234 121.109 -7.98986 219.922 10.7232 270.318C14.7085 297.415 50.5258 313.533 50.5258 313.533C50.5258 313.533 61.1682 355.778 80.0824 375.906C109.183 406.873 137.233 358.904 174.839 383.835C205.019 409.532 234.44 415.734 261.757 388.538C276.126 373.645 285.714 368.309 307.077 367.221C338.586 359.983 355.059 349.149 380.772 308.794C402.589 232.789 418.24 197.108 387.662 121.109C393.573 109.267 320.655 27.7217 320.655 27.7217C320.655 27.7217 262.739 -9.61888 166.782 6.39939Z" stroke="url(#paint0_linear_0_4)" stroke-width="4.81146"/>
<defs>
<linearGradient id="paint0_linear_0_4" x1="2.40634" y1="204.318" x2="404.73" y2="204.318" gradientUnits="userSpaceOnUse">
<stop stop-color="#F1E9DE"/>
<stop offset="1" stop-color="#E2C2FF"/>
</linearGradient>
</defs>
</svg>
