<svg preserveAspectRatio="none" width="100%" height="100%" overflow="visible" style="display: block;" viewBox="0 0 526.923 538.933" fill="none" xmlns="http://www.w3.org/2000/svg">
<path id="Vector 44" d="M217.138 11.0934C153.444 2.61343 46.4013 125.785 46.4013 125.785C46.4013 125.785 17.7703 143.39 17.7707 178.274C17.7719 271.278 -12.7754 271.967 11.842 337.861C17.0846 373.29 64.2017 412.672 64.2017 412.672C64.2017 412.672 78.2019 467.908 103.084 494.225C141.366 534.714 195.663 478.145 245.134 510.742C284.836 544.341 306.144 546.3 342.08 510.742C360.982 491.269 373.596 484.293 401.699 482.869C443.149 473.406 464.819 459.24 498.646 406.477C527.346 307.099 538.872 251.375 498.646 152.007C506.422 136.523 459.124 118.285 454.061 72.001C394.093 4.85467 343.372 -9.85055 217.138 11.0934Z" stroke="url(#paint0_linear_0_11)" stroke-width="4.50362"/>
<defs>
<linearGradient id="paint0_linear_0_11" x1="2.25176" y1="269.466" x2="524.671" y2="269.466" gradientUnits="userSpaceOnUse">
<stop stop-color="#F1E9DE"/>
<stop offset="1" stop-color="#E2C2FF"/>
</linearGradient>
</defs>
</svg>
