<svg width="1291" height="1289" viewBox="0 0 1291 1289" fill="none" xmlns="http://www.w3.org/2000/svg">
<path d="M1081.94 726.417C1132.56 631.316 1001.7 391.025 1001.7 391.025C1001.7 391.025 990.804 335.736 935.995 315.312C789.868 260.858 806.67 212.463 688.726 212.556C629.991 200.048 540.528 251.012 540.528 251.012C540.528 251.012 445.546 240.665 389.63 264.346C303.6 300.781 360.692 419.208 280.511 477.843C204.477 520.544 188.922 552.873 223.752 630.15C243.281 671.248 246.857 695.15 232.64 740.136C223.24 810.797 232.81 853.136 295.907 937.173C435.245 1040.45 516.048 1091.19 695.726 1086.17C715.5 1107.45 771.849 1043.83 847.533 1062.97C988.142 1008.07 1040.94 936.999 1081.94 726.417Z" stroke="url(#paint1_linear_144_153)" stroke-width="5.33392"/>
<path d="M1047.45 725.513C1065.56 520.132 977.188 400.865 977.188 400.865L940.199 347.434C940.199 347.434 765.776 241.89 656.784 241.816C602.49 230.217 546.483 286.945 546.483 286.945C546.483 286.945 458.696 277.288 407.055 299.022C327.605 332.461 398.832 419.779 324.817 473.671C254.612 512.896 221.972 564.476 254.263 635.693C272.365 673.569 275.702 695.587 262.625 736.999C254.035 802.063 262.935 841.069 321.357 918.55C450.258 1013.85 506.936 1068.89 672.97 1064.51C691.272 1084.14 897.857 1003.14 897.857 1003.14C897.857 1003.14 1009.84 919.398 1047.45 725.513Z" stroke="url(#paint6_linear_144_153)" stroke-width="5.69852"/>
<defs>
<linearGradient id="paint1_linear_144_153" x1="801.801" y1="237.536" x2="495.938" y2="1058.28" gradientUnits="userSpaceOnUse">
<stop stop-color="#F1E9DE"/>
<stop offset="1" stop-color="#E2C2FF"/>
</linearGradient>
<linearGradient id="paint6_linear_144_153" x1="788.044" y1="272.713" x2="502.819" y2="1038.08" gradientUnits="userSpaceOnUse">
<stop stop-color="#F1E9DE"/>
<stop offset="1" stop-color="#E2C2FF"/>
</linearGradient>
</defs>
</svg>
