<svg preserveAspectRatio="none" width="100%" height="100%" overflow="visible" style="display: block;" viewBox="0 0 582.306 589.622" fill="none" xmlns="http://www.w3.org/2000/svg">
<path id="Vector 16" d="M244.922 11.8767C175.5 2.59063 68.6258 115.881 68.6258 115.881C68.6258 115.881 65.8311 161.13 21.1613 184.838C-2.53692 257.001 -5.66985 297.512 21.1613 369.669C26.8755 408.466 78.2317 451.63 78.2317 451.63C78.2317 451.63 93.491 512.116 120.611 540.935C162.335 585.273 221.515 523.326 275.435 559.022C318.708 595.815 341.932 597.961 381.1 559.022C401.701 537.698 415.45 530.059 446.081 528.5C491.258 518.137 514.877 502.625 551.745 444.845C583.027 336.02 595.59 275 551.745 166.185C560.221 149.23 508.67 129.258 503.151 78.5742C437.79 5.04493 382.508 -11.0582 244.922 11.8767Z" stroke="url(#paint0_linear_0_12)" stroke-width="4.38924"/>
<defs>
<linearGradient id="paint0_linear_0_12" x1="2.19462" y1="294.811" x2="580.112" y2="294.811" gradientUnits="userSpaceOnUse">
<stop stop-color="#F1E9DE"/>
<stop offset="1" stop-color="#E2C2FF"/>
</linearGradient>
</defs>
</svg>
