<svg preserveAspectRatio="none" width="100%" height="100%" overflow="visible" style="display: block;" viewBox="0 0 828.405 831.331" fill="none" xmlns="http://www.w3.org/2000/svg">
<path id="Vector 21" d="M338.887 10.5198C138.423 65.8039 56.8391 191.489 56.8391 191.489L19.3736 245.334C19.3736 245.334 -18.9399 447.607 19.3731 550.77C27.5325 606.238 100.865 639.232 100.865 639.232C100.865 639.232 122.654 725.708 161.379 766.91C220.958 830.301 278.389 732.107 355.383 783.142C417.173 835.744 477.411 848.44 533.339 792.77C562.757 762.283 582.389 751.361 626.127 749.132C690.638 734.316 724.364 712.139 777.009 629.532C821.677 473.946 853.722 400.905 791.115 245.334C803.218 221.093 653.926 54.1671 653.926 54.1671C653.926 54.1671 535.35 -22.2701 338.887 10.5198Z" stroke="url(#paint0_linear_0_7)" stroke-width="4.68927"/>
<defs>
<linearGradient id="paint0_linear_0_7" x1="2.34523" y1="415.665" x2="826.06" y2="415.665" gradientUnits="userSpaceOnUse">
<stop stop-color="#F1E9DE"/>
<stop offset="1" stop-color="#E2C2FF"/>
</linearGradient>
</defs>
</svg>
