<svg preserveAspectRatio="none" width="100%" height="100%" overflow="visible" style="display: block;" viewBox="0 0 676.818 678.286" fill="none" xmlns="http://www.w3.org/2000/svg">
<path id="Vector 18" d="M276.954 9.00622C113.381 54.0551 46.8107 156.471 46.8107 156.471L16.2399 200.347C16.2399 200.347 -15.0228 365.171 16.2395 449.234C22.8973 494.433 82.7343 521.318 82.7343 521.318C82.7343 521.318 100.514 591.785 132.112 625.359C180.727 677.013 227.589 596.999 290.414 638.585C340.833 681.448 389.985 691.794 435.621 646.431C459.625 621.588 475.644 612.688 511.334 610.872C563.973 598.799 591.492 580.727 634.449 513.414C670.896 386.633 697.044 327.116 645.959 200.347C655.835 180.594 534.017 44.5727 534.017 44.5727C534.017 44.5727 437.262 -17.713 276.954 9.00622Z" stroke="url(#paint0_linear_0_13)" stroke-width="4.68927"/>
<defs>
<linearGradient id="paint0_linear_0_13" x1="2.34523" y1="339.143" x2="674.473" y2="339.143" gradientUnits="userSpaceOnUse">
<stop stop-color="#F1E9DE"/>
<stop offset="1" stop-color="#E2C2FF"/>
</linearGradient>
</defs>
</svg>
