<svg preserveAspectRatio="none" width="100%" height="100%" overflow="visible" style="display: block;" viewBox="0 0 513.542 525.246" fill="none" xmlns="http://www.w3.org/2000/svg">
<path id="Vector 22" d="M211.624 10.8117C149.548 2.54706 45.2229 122.591 45.2229 122.591C45.2229 122.591 17.319 139.749 17.3194 173.747C17.3206 264.388 -12.4509 265.06 11.5412 329.28C16.6507 363.81 62.5712 402.192 62.5712 402.192C62.5712 402.192 76.2159 456.025 100.466 481.673C137.775 521.135 190.694 466.002 238.908 497.771C277.602 530.516 298.369 532.427 333.392 497.771C351.814 478.793 364.108 471.993 391.498 470.606C431.895 461.383 453.015 447.577 485.982 396.154C513.953 299.3 525.187 244.991 485.982 148.146C493.561 133.056 447.464 115.281 442.529 70.1724C384.085 4.73138 334.652 -9.60039 211.624 10.8117Z" stroke="url(#paint0_linear_0_11)" stroke-width="4.38924"/>
<defs>
<linearGradient id="paint0_linear_0_11" x1="2.19457" y1="262.623" x2="511.347" y2="262.623" gradientUnits="userSpaceOnUse">
<stop stop-color="#F1E9DE"/>
<stop offset="1" stop-color="#E2C2FF"/>
</linearGradient>
</defs>
</svg>
