<svg preserveAspectRatio="none" width="100%" height="100%" overflow="visible" style="display: block;" viewBox="0 0 628.503 629.925" fill="none" xmlns="http://www.w3.org/2000/svg">
<path id="Vector 17" d="M261.663 12.6886C187.496 2.76772 69.6461 117.928 69.6461 117.928C69.6461 117.928 70.3307 172.144 22.6075 197.472C-2.71064 274.568 -6.05707 339.307 22.6082 416.397C28.7129 457.845 83.5788 482.501 83.5788 482.501C83.5788 482.501 99.8812 547.121 128.855 577.91C173.431 625.28 229.309 559.098 286.914 597.234C333.145 636.541 365.305 638.834 407.149 597.234C429.159 574.452 443.847 566.29 476.572 564.625C524.838 553.554 550.071 536.981 589.459 475.252C622.879 358.989 646.854 304.409 600.013 188.156C609.068 170.042 543.439 138.093 537.543 83.9451C467.715 5.38977 408.654 -11.8141 261.663 12.6886Z" stroke="url(#paint0_linear_0_6)" stroke-width="4.68927"/>
<defs>
<linearGradient id="paint0_linear_0_6" x1="2.34498" y1="314.962" x2="626.158" y2="314.962" gradientUnits="userSpaceOnUse">
<stop stop-color="#F1E9DE"/>
<stop offset="1" stop-color="#E2C2FF"/>
</linearGradient>
</defs>
</svg>
