<svg preserveAspectRatio="none" width="100%" height="100%" overflow="visible" style="display: block;" viewBox="0 0 450.929 450.929" fill="none" xmlns="http://www.w3.org/2000/svg">
<path id="Vector 23" d="M188.345 9.76354C135.147 2.64804 50.6176 85.2441 50.6176 85.2441C50.6176 85.2441 41.1059 89.5872 16.8785 142.296C-1.28133 197.59 -3.6816 244.023 16.8789 299.314C21.2576 329.042 60.611 346.725 60.611 346.725C60.611 346.725 72.3042 393.073 93.0857 415.156C125.059 449.13 153.569 396.876 194.887 424.228C228.046 452.421 262.683 458.852 292.696 429.015C308.483 412.675 313.82 404.771 337.292 403.577C371.911 395.636 391.618 390.999 419.87 346.725C443.841 263.338 464.628 218.993 431.031 135.613C437.526 122.621 390.453 99.7069 386.224 60.8707C336.138 4.52866 293.776 -7.8104 188.345 9.76354Z" stroke="url(#paint0_linear_0_10)" stroke-width="4.68927"/>
<defs>
<linearGradient id="paint0_linear_0_10" x1="2.34466" y1="225.464" x2="448.585" y2="225.464" gradientUnits="userSpaceOnUse">
<stop stop-color="#F5F4EF"/>
<stop offset="1" stop-color="#FF7A2F"/>
</linearGradient>
</defs>
</svg>
