<svg preserveAspectRatio="none" width="100%" height="100%" overflow="visible" style="display: block;" viewBox="0 0 396.796 398.258" fill="none" xmlns="http://www.w3.org/2000/svg">
<path id="Vector 24" d="M162.546 6.23687C67.1214 32.558 28.2855 92.3974 28.2855 92.3974L10.4511 118.033C10.4511 118.033 -7.78695 214.337 10.4509 263.453C14.3349 289.862 49.2426 305.57 49.2426 305.57C49.2426 305.57 59.6148 346.743 78.0486 366.359C106.41 396.54 133.748 349.789 170.399 374.087C199.812 399.131 228.487 405.176 255.11 378.671C269.113 364.156 278.458 358.956 299.279 357.895C329.987 350.841 346.042 340.282 371.102 300.952C392.364 226.877 407.619 192.102 377.816 118.033C383.578 106.492 312.512 27.0177 312.512 27.0177C312.512 27.0177 256.067 -9.3746 162.546 6.23687Z" stroke="url(#paint0_linear_0_5)" stroke-width="4.68927"/>
<defs>
<linearGradient id="paint0_linear_0_5" x1="2.34523" y1="199.129" x2="394.451" y2="199.129" gradientUnits="userSpaceOnUse">
<stop stop-color="#F1E9DE"/>
<stop offset="1" stop-color="#E2C2FF"/>
</linearGradient>
</defs>
</svg>
