<svg preserveAspectRatio="none" width="100%" height="100%" overflow="visible" style="display: block;" viewBox="0 0 779.503 779.237" fill="none" xmlns="http://www.w3.org/2000/svg">
<path id="Vector 20" d="M325.3 15.2219C232.932 2.87136 86.1617 146.235 86.1617 146.235C86.1617 146.235 69.6464 153.773 27.58 245.26C-3.95121 341.237 -8.11884 421.831 27.5808 517.8C35.1836 569.4 103.514 600.093 103.514 600.093C103.514 600.093 123.817 680.54 159.9 718.869C215.415 777.84 264.917 687.141 336.659 734.617C394.234 783.551 454.374 794.714 506.488 742.925C533.899 714.564 543.164 700.845 583.92 698.771C644.03 684.989 678.247 676.94 727.302 600.093C768.922 455.356 805.016 378.386 746.68 233.662C757.957 211.112 676.223 171.338 668.88 103.93C581.916 6.13558 508.361 -15.2816 325.3 15.2219Z" stroke="url(#paint0_linear_0_14)" stroke-width="4.68927"/>
<defs>
<linearGradient id="paint0_linear_0_14" x1="2.34466" y1="389.618" x2="777.159" y2="389.618" gradientUnits="userSpaceOnUse">
<stop stop-color="#F1E9DE"/>
<stop offset="1" stop-color="#E2C2FF"/>
</linearGradient>
</defs>
</svg>
