<svg preserveAspectRatio="none" width="100%" height="100%" overflow="visible" style="display: block;" viewBox="0 0 725.15 741.782" fill="none" xmlns="http://www.w3.org/2000/svg">
<path id="Vector 19" d="M298.665 14.3941C210.789 2.69363 63.1059 172.643 63.1059 172.643C63.1059 172.643 23.6049 196.934 23.6055 245.066C23.6071 373.39 -18.5377 374.342 15.4258 465.26C22.6589 514.144 87.6643 568.483 87.6643 568.483C87.6643 568.483 106.98 644.696 141.308 681.007C194.124 736.874 269.036 658.82 337.289 703.797C392.064 750.156 421.462 752.86 471.041 703.797C497.119 676.929 514.523 667.303 553.296 665.339C610.483 652.282 640.38 632.737 687.049 559.934C726.645 422.815 742.548 345.93 687.049 208.823C697.778 187.459 632.523 162.294 625.537 98.4329C542.802 5.78604 472.824 -14.5039 298.665 14.3941Z" stroke="url(#paint0_linear_0_8)" stroke-width="4.38924"/>
<defs>
<linearGradient id="paint0_linear_0_8" x1="2.19457" y1="370.891" x2="722.955" y2="370.891" gradientUnits="userSpaceOnUse">
<stop stop-color="#F1E9DE"/>
<stop offset="1" stop-color="#E2C2FF"/>
</linearGradient>
</defs>
</svg>
